<?xml version="1.0" encoding="utf-8"?>
<!-- Generator: Adobe Illustrator 15.0.2, SVG Export Plug-In . SVG Version: 6.00 Build 0)  -->
<!DOCTYPE svg PUBLIC "-//W3C//DTD SVG 1.1//EN" "http://www.w3.org/Graphics/SVG/1.1/DTD/svg11.dtd">
<svg version="1.1" id="Layer_1" xmlns="http://www.w3.org/2000/svg" xmlns:xlink="http://www.w3.org/1999/xlink" x="0px" y="0px"
	 width="210px" height="207px" viewBox="0 0 210 207" enable-background="new 0 0 210 207" xml:space="preserve">
<g>
	<g>
		<path fill="#FFFFFF" d="M0.12,171.19v-28.182h4.547v13.525l10.558-13.525h5.75l-9.695,12.362
			c3.231,4.959,7.252,10.934,10.446,15.819h-5.598l-7.854-12.063l-3.607,4.511v7.553H0.12z"/>
		<polygon fill="#FFFFFF" points="63.468,147.517 49.265,147.517 49.265,155.521 61.064,155.521 61.064,160.03 49.265,160.03 
			49.265,166.643 63.731,166.643 63.731,171.19 44.642,171.19 44.642,143.009 63.468,143.009 		"/>
		<polygon fill="#FFFFFF" points="88.115,171.19 88.115,142.445 105.81,160.596 105.81,143.009 110.395,143.009 110.395,171.753 
			92.697,153.643 92.697,171.19 		"/>
		<path fill="#FFFFFF" d="M158.639,157.136c0,8.117-6.388,14.055-14.506,14.055h-8.189v-28.182h8.189
			C152.212,143.009,158.639,149.172,158.639,157.136 M140.564,147.517v19.126h2.934c6.311,0,10.444-3.72,10.444-9.507
			c0-5.485-4.096-9.619-9.809-9.619H140.564z"/>
		<path fill="#FFFFFF" d="M195.535,142.445c8.076,0,14.465,6.575,14.465,14.654s-6.389,14.617-14.465,14.617
			c-8.08,0-14.429-6.538-14.429-14.617S187.455,142.445,195.535,142.445 M195.535,167.057c5.523,0,9.807-4.696,9.807-9.957
			c0-5.525-4.283-10.033-9.807-10.033c-5.524,0-9.771,4.508-9.771,10.033C185.764,162.36,190.01,167.057,195.535,167.057"/>
		<path fill="#AA7738" d="M23.233,184.475c-1.953-2.803-5.676-4.462-9.068-4.462c-6.781,0-12.054,5.602-12.054,12.349
			c0,6.783,5.273,12.24,12.054,12.24c3.761,0,7.632-1.845,9.585-4.866l1.585,1.251c-2.175,3.575-6.709,5.752-11.17,5.752
			c-8.036,0-14.045-6.413-14.045-14.377c0-7.961,6.046-14.376,14.045-14.376c4.129,0,8.405,1.99,10.728,5.271L23.233,184.475z"/>
		<path fill="#AA7738" d="M31.931,178.54h8.479c5.751,0,10.174,3.906,10.174,9.768c0,4.498-2.765,7.998-6.746,9.288l5.456,8.589
			h-2.396l-5.162-8.146c-0.44,0.037-0.882,0.075-1.326,0.075h-6.451v8.071h-2.028V178.54z M40.41,196.086
			c4.46,0,8.146-3.097,8.146-7.778c0-4.608-3.612-7.778-8.146-7.778h-6.451v15.557H40.41z"/>
		<polygon fill="#AA7738" points="75.132,180.566 59.65,180.566 59.65,192.03 72.551,192.03 72.551,194.058 59.65,194.058 
			59.65,204.158 75.463,204.158 75.463,206.185 57.622,206.185 57.622,178.54 75.132,178.54 		"/>
		<path fill="#AA7738" d="M98.537,198.113h-14.34v8.071h-2.101v-18.209c0-6.747,4.239-9.99,9.252-9.99
			c4.941,0,9.216,3.243,9.216,9.99v18.209h-2.028V198.113z M98.537,196.123v-7.815c0-4.904-2.764-8.295-7.188-8.295
			c-4.755,0-7.151,3.391-7.151,8.295v7.815H98.537z"/>
		<polygon fill="#AA7738" points="114.166,206.187 114.166,180.566 104.986,180.566 104.986,178.54 125.372,178.54 125.372,180.566 
			116.193,180.566 116.193,206.187 		"/>
		<rect x="131.893" y="178.54" fill="#AA7738" width="2.029" height="27.646"/>
		<polygon fill="#AA7738" points="140.002,178.54 142.289,178.54 151.395,201.358 160.498,178.54 162.785,178.54 151.395,206.738 		
			"/>
		<polygon fill="#AA7738" points="186.375,180.566 170.892,180.566 170.892,192.03 183.793,192.03 183.793,194.058 170.892,194.058 
			170.892,204.158 186.706,204.158 186.706,206.185 168.864,206.185 168.864,178.54 186.375,178.54 		"/>
		<path fill="#AA7738" d="M194.922,184.583c0,2.25,0.516,3.946,6.525,6.121c4.719,1.733,8.552,3.686,8.552,8.478
			c0,3.945-3.315,7.557-8.331,7.557c-4.902,0-7.519-2.726-9.289-5.16l1.549-1.217c0.886,1.18,3.171,4.351,7.888,4.351
			c3.208,0,6.158-2.544,6.158-5.567c0-3.465-3.134-4.939-8.111-6.783c-4.2-1.583-6.968-3.465-6.968-7.741
			c0-3.133,2.913-6.635,7.594-6.635c2.803,0,5.309,0.294,8.332,3.354l-1.732,1.292c-1.991-1.991-3.797-2.618-6.6-2.618
			C196.95,180.013,194.922,182.482,194.922,184.583"/>
	</g>
	<g>
		<path fill="#FFFFFF" d="M82.978,61.147L67.47,34.276c-5.444,7.569-8.657,16.853-8.657,26.873c0,6.088,1.189,11.906,3.344,17.233
			h30.772L82.978,61.147z"/>
		<path fill="#FFFFFF" d="M62.92,80.168c6.426,14.134,19.772,24.479,35.684,26.671l15.313-26.671H62.92z"/>
		<path fill="#FFFFFF" d="M109.323,15.232c-1.442-0.138-2.905-0.209-4.383-0.209c-14.719,0-27.85,6.93-36.298,17.703l15.365,26.63
			L109.323,15.232z"/>
		<path fill="#FFFFFF" d="M146.961,42.126c-6.423-14.137-19.784-24.486-35.709-26.67l-15.298,26.67H146.961z"/>
		<path fill="#FFFFFF" d="M116.962,43.913l25.607,43.888c5.35-7.534,8.498-16.735,8.498-26.654c0-6.104-1.191-11.903-3.363-17.238
			L116.962,43.913z"/>
		<path fill="#FFFFFF" d="M100.533,107.067c1.45,0.14,2.918,0.21,4.407,0.21c14.816,0,28.018-7.02,36.459-17.909
			c0.011-0.004,0.011-0.009,0.011-0.014l-15.475-26.518L100.533,107.067z"/>
		<path fill="#FFFFFF" d="M209.62,60.707c-10.422-18.048-25.425-33.185-43.382-43.773C147.74,6.027,126.55,0.262,104.947,0.262
			c-21.598,0-42.793,5.765-61.291,16.672C25.697,27.521,10.691,42.658,0.259,60.706L0,61.153l0.259,0.448
			c10.44,18.041,25.453,33.173,43.41,43.758c18.498,10.905,39.688,16.668,61.278,16.668c21.592,0,42.783-5.764,61.278-16.668
			C184.182,94.772,199.188,79.64,209.62,61.6l0.259-0.447L209.62,60.707z M165.316,103.818
			c-18.222,10.744-39.097,16.423-60.369,16.423c-21.27,0-42.146-5.68-60.371-16.423C27.033,93.478,12.341,78.73,2.066,61.153
			c10.268-17.583,24.953-32.335,42.498-42.68C62.787,7.729,83.667,2.05,104.947,2.05c21.28,0,42.16,5.679,60.381,16.422
			c17.547,10.346,32.227,25.098,42.485,42.681C197.545,78.73,182.86,93.476,165.316,103.818z"/>
	</g>
</g>
</svg>
